<svg width="50" height="51" viewBox="0 0 50 51" fill="none" xmlns="http://www.w3.org/2000/svg">
<path fill-rule="evenodd" clip-rule="evenodd" d="M5.97979 50.2312H44.3383C47.3647 50.2312 49.8181 47.7778 49.8181 44.7514V6.39287C49.8181 3.36647 47.3647 0.913086 44.3383 0.913086H5.97979C2.95338 0.913086 0.5 3.36647 0.5 6.39287V44.7514C0.5 47.7778 2.95338 50.2312 5.97979 50.2312Z" fill="#3F51B5"/>
<path d="M29.5281 43.3162V18.0886H36.5213V43.3162H29.5281ZM33.0438 14.8398C32.0066 14.8398 31.1143 14.4967 30.367 13.8027C29.6349 13.1011 29.2688 12.2622 29.2688 11.2936C29.2688 10.3251 29.6349 9.50147 30.367 8.81511C31.1143 8.1135 32.0066 7.7627 33.0438 7.7627C34.0809 7.7627 34.9732 8.1135 35.7053 8.81511C36.4527 9.50147 36.8188 10.3327 36.8188 11.2936C36.8188 12.2545 36.4451 13.1087 35.7053 13.8027C34.9732 14.489 34.0886 14.8398 33.0438 14.8398Z" fill="white"/>
<path d="M20.0286 14.9373C18.9915 14.9373 18.0992 14.5894 17.3518 13.8859C16.6197 13.1746 16.2537 12.3242 16.2537 11.3423C16.2537 10.3604 16.6197 9.52543 17.3518 8.82961C18.0992 8.11833 18.9915 7.7627 20.0286 7.7627C21.0658 7.7627 21.9581 8.11833 22.6902 8.82961C23.4376 9.52543 23.8036 10.3681 23.8036 11.3423C23.8036 12.3164 23.4299 13.1823 22.6902 13.8859C21.9581 14.5817 21.0734 14.9373 20.0286 14.9373Z" fill="white"/>
<path d="M16.8026 18.2308V35.3634C16.8026 36.3298 16.5738 37.0488 16.1162 37.5281C15.6663 38.0152 14.8808 38.2626 13.7521 38.2626C13.5996 38.2626 13.4547 38.2549 13.3251 38.2471C13.1802 38.2471 13.02 38.2394 12.8293 38.2317V43.775C13.081 43.775 13.3251 43.7905 13.5538 43.7905C13.775 43.7982 14.0038 43.8059 14.2402 43.8059C16.223 43.8059 17.9237 43.5199 19.3498 42.9555C20.7835 42.3911 21.8817 41.4943 22.6519 40.2727C23.4145 39.0589 23.8035 37.4586 23.8035 35.4793V18.2308H16.8026Z" fill="white"/>
</svg>